<svg width="1066" height="156" viewBox="0 0 1066 156" fill="none" xmlns="http://www.w3.org/2000/svg"><path d="M793.1 81.9698C806.51 81.9698 817.52 78.3398 825.81 71.1898C834.2 63.9498 838.46 54.2998 838.46 42.4898C838.46 30.6798 834.21 21.0298 825.81 13.7898C817.51 6.63976 806.51 3.00977 793.1 3.00977H725.75V153.38H735.04V81.9698H769.66L833.45 153.38H846.48L782.03 81.9698H793.08H793.1ZM735.04 11.8698H793.1C804.1 11.8698 812.98 14.7298 819.5 20.3598C826.01 25.9798 829.17 33.2298 829.17 42.4998C829.17 51.7698 826.01 59.0098 819.5 64.6398C812.98 70.2698 804.1 73.1298 793.1 73.1298H735.04V11.8798V11.8698Z" fill="black"></path><path d="M880.03 3.00977H870.74V153.38H880.03V3.00977Z" fill="black"></path><path d="M1043.86 23.2798C1029.19 8.38985 1011.03 0.839844 989.901 0.839844C968.771 0.839844 950.391 8.38985 935.721 23.2798C921.061 38.1598 913.631 56.6398 913.631 78.1998C913.631 99.7598 921.061 118.24 935.721 133.12C950.391 148.01 968.621 155.56 989.901 155.56C1011.18 155.56 1029.38 148.01 1043.98 133.11C1058.56 118.23 1065.96 99.7498 1065.96 78.1898C1065.96 56.6299 1058.53 38.1499 1043.87 23.2699L1043.86 23.2798ZM942.301 29.5898C955.151 16.3898 971.171 9.69984 989.891 9.69984C1008.61 9.69984 1024.41 16.3898 1037.26 29.5898C1050.13 42.8098 1056.65 59.1699 1056.65 78.2099C1056.65 97.2499 1050.13 113.78 1037.26 126.93C1024.41 140.06 1008.47 146.72 989.881 146.72C971.291 146.72 955.131 140.06 942.281 126.93C929.411 113.79 922.891 97.3899 922.891 78.2099C922.891 59.0299 929.411 42.8098 942.281 29.5898H942.301Z" fill="black"></path><path fill-rule="evenodd" clip-rule="evenodd" d="M397.641 102.48C400.451 101.67 403.031 100.49 405.441 99.0799C408.021 97.8799 410.621 96.2799 412.821 94.4799C424.821 85.0899 432.401 70.6999 432.401 54.5199C432.401 50.7299 432.011 47.1299 431.201 43.7299C430.391 40.3299 429.401 36.9399 427.791 33.7299C420.411 17.3499 404.621 5.75992 385.831 4.35992H365.061L306.701 4.16992C303.711 4.16992 300.911 5.36992 298.911 7.35992C296.921 9.35992 295.711 12.1599 295.711 15.3499V153.03H317.891V105.08H373.641L402.221 152.84L402.411 153.03H427.591L427.381 152.64L397.611 102.48H397.641ZM365.081 84.8899H317.911V24.1399H382.061C390.461 24.1399 398.041 27.5499 403.431 33.1399C408.831 38.5299 412.421 46.1299 412.421 54.5199V54.7199C412.421 56.9099 412.021 58.9099 411.621 61.1099C411.241 63.0999 410.431 65.1099 409.631 67.1099C405.231 76.6999 396.041 83.6899 385.051 84.8899H365.081Z" fill="#231F20"></path><path fill-rule="evenodd" clip-rule="evenodd" d="M259.359 152.63C255.159 142.43 250.759 132.06 246.559 121.86C230.969 85.0897 215.589 48.3197 201.809 11.3697L201.599 11.1797C201.409 10.5597 201.009 9.9597 200.809 9.3597C200.399 8.9797 200.009 8.3697 199.599 7.9697C197.609 5.5697 194.609 4.17969 191.199 4.17969C190.609 4.17969 190.209 4.17969 189.609 4.36969C189.019 4.36969 188.409 4.5797 187.809 4.7697C187.199 4.9697 186.609 5.17969 186.219 5.36969C183.819 6.56969 181.829 8.75969 180.809 11.3697C166.839 48.3297 151.449 85.0897 136.049 121.86C131.649 132.06 127.269 142.43 123.059 152.63L122.869 153.03H145.239V152.84L154.449 130.66H228.169L237.159 152.84L237.349 153.03H259.539L259.339 152.63H259.359ZM191.209 112.66H161.839L191.209 40.5297L220.789 112.66H191.209Z" fill="#231F20"></path><path fill-rule="evenodd" clip-rule="evenodd" d="M22.7708 77.0997H85.9209C86.5109 77.2997 87.3209 77.2997 87.9109 77.6997C88.7209 77.8897 89.3009 78.0997 89.9109 78.4897C92.9009 80.2997 94.9008 83.4997 94.9008 87.2897V88.0897C94.7008 88.8997 94.7008 89.6897 94.3008 90.2997C94.1108 91.0997 93.9009 91.6997 93.5009 92.2997C91.7109 95.2997 88.5009 97.2797 84.9109 97.2797H22.7708V153.04H0.380859V15.3597C0.380859 12.1597 1.77084 9.3597 3.77084 7.3797C5.78084 5.3797 8.57084 4.17969 11.5808 4.17969H119.491V24.1497H22.7708V77.1097V77.0997Z" fill="#231F20"></path><path fill-rule="evenodd" clip-rule="evenodd" d="M490.36 1.56055C491.95 1.56055 493.55 1.96055 494.96 2.56055C495.36 2.76055 495.76 2.95055 496.16 3.17055C498.36 4.36055 499.95 6.16055 500.94 8.56055L557.9 103.481L614.65 8.56055C614.85 7.96055 615.24 7.36056 615.65 6.96056C615.86 6.37056 616.24 5.96055 616.64 5.36055C618.84 3.17055 621.84 1.56055 625.25 1.56055H625.45C626.44 1.56055 627.25 1.75055 628.05 1.96055C628.84 2.16055 629.64 2.36054 630.44 2.76054C634.04 4.56054 636.63 8.36054 637.03 12.5405V153.031H614.65V43.5206C608.25 54.3206 602.06 65.3106 595.87 76.3006C586.46 92.8906 577.09 109.481 567.29 125.661L567.08 125.861C566.89 126.451 566.48 126.861 566.28 127.261C565.88 127.661 565.48 127.851 565.08 128.261C563.07 129.871 560.68 130.861 557.88 130.861H557.48C556.89 130.861 556.28 130.861 555.88 130.661C555.28 130.661 554.69 130.461 554.28 130.261C551.89 129.461 549.88 127.851 548.49 125.671C538.1 108.871 528.11 91.2906 518.32 73.9106C512.54 63.7206 506.93 53.5205 501.13 43.5305V153.041H478.76V12.5506C478.76 11.7606 478.96 10.9605 479.15 10.1705C479.35 9.36055 479.75 8.57055 480.15 7.97055C481.95 4.18055 485.95 1.58055 490.35 1.58055" fill="#231F20"></path></svg>